<mxfile host="app.diagrams.net" agent="Mozilla/5.0 (Windows NT 10.0; Win64; x64) AppleWebKit/537.36 (KHTML, like Gecko) Chrome/130.0.0.0 Safari/537.36" version="24.8.3">
  <diagram name="Page-1" id="qgboC0yW0NJ7pntvo6_7">
    <mxGraphModel dx="1430" dy="790" grid="1" gridSize="10" guides="1" tooltips="1" connect="1" arrows="1" fold="1" page="1" pageScale="1" pageWidth="1169" pageHeight="827" math="0" shadow="0">
      <root>
        <mxCell id="0" />
        <mxCell id="1" parent="0" />
        <mxCell id="w4ypoUHhYFHXSaaBUVkP-26" value="" style="shape=link;html=1;rounded=0;width=20.285714285714285;fillColor=#d5e8d4;strokeColor=#82b366;" edge="1" parent="1">
          <mxGeometry width="100" relative="1" as="geometry">
            <mxPoint x="560" y="490" as="sourcePoint" />
            <mxPoint x="1160" y="490" as="targetPoint" />
          </mxGeometry>
        </mxCell>
        <mxCell id="w4ypoUHhYFHXSaaBUVkP-1" value="" style="shape=link;html=1;rounded=0;width=20.285714285714285;fillColor=#d5e8d4;strokeColor=#82b366;" edge="1" parent="1">
          <mxGeometry width="100" relative="1" as="geometry">
            <mxPoint x="570" y="500" as="sourcePoint" />
            <mxPoint x="570" y="180" as="targetPoint" />
          </mxGeometry>
        </mxCell>
        <mxCell id="w4ypoUHhYFHXSaaBUVkP-2" value="IO System" style="rounded=1;whiteSpace=wrap;html=1;" vertex="1" parent="1">
          <mxGeometry x="980" y="20" width="180" height="40" as="geometry" />
        </mxCell>
        <mxCell id="w4ypoUHhYFHXSaaBUVkP-3" value="IOA" style="rounded=0;whiteSpace=wrap;html=1;" vertex="1" parent="1">
          <mxGeometry x="1050" y="100" width="40" height="40" as="geometry" />
        </mxCell>
        <mxCell id="w4ypoUHhYFHXSaaBUVkP-4" value="&amp;nbsp;&amp;nbsp;" style="shape=flexArrow;endArrow=classic;html=1;rounded=0;entryX=0.75;entryY=1;entryDx=0;entryDy=0;" edge="1" parent="1" target="w4ypoUHhYFHXSaaBUVkP-2">
          <mxGeometry x="0.0081" y="9" width="50" height="50" relative="1" as="geometry">
            <mxPoint x="1115" y="180" as="sourcePoint" />
            <mxPoint x="860" y="230" as="targetPoint" />
            <mxPoint as="offset" />
          </mxGeometry>
        </mxCell>
        <mxCell id="w4ypoUHhYFHXSaaBUVkP-5" value="" style="shape=flexArrow;endArrow=classic;html=1;rounded=0;entryX=0.5;entryY=1;entryDx=0;entryDy=0;" edge="1" parent="1" target="w4ypoUHhYFHXSaaBUVkP-3">
          <mxGeometry width="50" height="50" relative="1" as="geometry">
            <mxPoint x="1070" y="180" as="sourcePoint" />
            <mxPoint x="860" y="230" as="targetPoint" />
          </mxGeometry>
        </mxCell>
        <mxCell id="w4ypoUHhYFHXSaaBUVkP-6" value="" style="shape=flexArrow;endArrow=classic;html=1;rounded=0;exitX=0.5;exitY=0;exitDx=0;exitDy=0;entryX=0.5;entryY=1;entryDx=0;entryDy=0;" edge="1" parent="1" source="w4ypoUHhYFHXSaaBUVkP-3" target="w4ypoUHhYFHXSaaBUVkP-2">
          <mxGeometry width="50" height="50" relative="1" as="geometry">
            <mxPoint x="810" y="280" as="sourcePoint" />
            <mxPoint x="860" y="230" as="targetPoint" />
          </mxGeometry>
        </mxCell>
        <mxCell id="w4ypoUHhYFHXSaaBUVkP-7" value="" style="shape=flexArrow;endArrow=classic;html=1;rounded=0;exitX=0.25;exitY=1;exitDx=0;exitDy=0;" edge="1" parent="1" source="w4ypoUHhYFHXSaaBUVkP-2">
          <mxGeometry width="50" height="50" relative="1" as="geometry">
            <mxPoint x="810" y="280" as="sourcePoint" />
            <mxPoint x="1025" y="180" as="targetPoint" />
          </mxGeometry>
        </mxCell>
        <mxCell id="w4ypoUHhYFHXSaaBUVkP-8" value="M" style="rounded=1;whiteSpace=wrap;html=1;" vertex="1" parent="1">
          <mxGeometry x="980" y="320" width="180" height="40" as="geometry" />
        </mxCell>
        <mxCell id="w4ypoUHhYFHXSaaBUVkP-9" value="MA" style="rounded=0;whiteSpace=wrap;html=1;" vertex="1" parent="1">
          <mxGeometry x="1050" y="400" width="40" height="40" as="geometry" />
        </mxCell>
        <mxCell id="w4ypoUHhYFHXSaaBUVkP-10" value="" style="shape=flexArrow;endArrow=classic;html=1;rounded=0;entryX=0.5;entryY=1;entryDx=0;entryDy=0;exitX=0.5;exitY=0;exitDx=0;exitDy=0;" edge="1" parent="1" source="w4ypoUHhYFHXSaaBUVkP-9" target="w4ypoUHhYFHXSaaBUVkP-8">
          <mxGeometry width="50" height="50" relative="1" as="geometry">
            <mxPoint x="980" y="390" as="sourcePoint" />
            <mxPoint x="610" y="500" as="targetPoint" />
          </mxGeometry>
        </mxCell>
        <mxCell id="w4ypoUHhYFHXSaaBUVkP-11" value="" style="shape=flexArrow;endArrow=classic;html=1;rounded=0;entryX=0.75;entryY=1;entryDx=0;entryDy=0;" edge="1" parent="1" target="w4ypoUHhYFHXSaaBUVkP-8">
          <mxGeometry width="50" height="50" relative="1" as="geometry">
            <mxPoint x="1115" y="480" as="sourcePoint" />
            <mxPoint x="1115" y="480" as="targetPoint" />
          </mxGeometry>
        </mxCell>
        <mxCell id="w4ypoUHhYFHXSaaBUVkP-12" value="" style="shape=flexArrow;endArrow=classic;html=1;rounded=0;entryX=0.5;entryY=1;entryDx=0;entryDy=0;" edge="1" parent="1" target="w4ypoUHhYFHXSaaBUVkP-9">
          <mxGeometry width="50" height="50" relative="1" as="geometry">
            <mxPoint x="1070" y="480" as="sourcePoint" />
            <mxPoint x="1070" y="480" as="targetPoint" />
          </mxGeometry>
        </mxCell>
        <mxCell id="w4ypoUHhYFHXSaaBUVkP-13" value="T1" style="rounded=0;whiteSpace=wrap;html=1;" vertex="1" parent="1">
          <mxGeometry x="800" y="240" width="40" height="40" as="geometry" />
        </mxCell>
        <mxCell id="w4ypoUHhYFHXSaaBUVkP-14" value="T2" style="rounded=0;whiteSpace=wrap;html=1;" vertex="1" parent="1">
          <mxGeometry x="880" y="240" width="40" height="40" as="geometry" />
        </mxCell>
        <mxCell id="w4ypoUHhYFHXSaaBUVkP-15" value="GR&lt;br&gt;RF" style="rounded=1;whiteSpace=wrap;html=1;" vertex="1" parent="1">
          <mxGeometry x="700" y="240" width="40" height="200" as="geometry" />
        </mxCell>
        <mxCell id="w4ypoUHhYFHXSaaBUVkP-16" value="REG" style="rounded=0;whiteSpace=wrap;html=1;" vertex="1" parent="1">
          <mxGeometry x="620.28" y="320" width="40" height="40" as="geometry" />
        </mxCell>
        <mxCell id="w4ypoUHhYFHXSaaBUVkP-17" value="IR" style="rounded=0;whiteSpace=wrap;html=1;" vertex="1" parent="1">
          <mxGeometry x="660" y="540" width="80" height="40" as="geometry" />
        </mxCell>
        <mxCell id="w4ypoUHhYFHXSaaBUVkP-18" value="FR" style="rounded=0;whiteSpace=wrap;html=1;" vertex="1" parent="1">
          <mxGeometry x="780" y="540" width="160" height="40" as="geometry" />
        </mxCell>
        <mxCell id="w4ypoUHhYFHXSaaBUVkP-19" value="PC" style="rounded=0;whiteSpace=wrap;html=1;" vertex="1" parent="1">
          <mxGeometry x="1050" y="540" width="80" height="40" as="geometry" />
        </mxCell>
        <mxCell id="w4ypoUHhYFHXSaaBUVkP-20" value="ALU" style="rounded=1;whiteSpace=wrap;html=1;" vertex="1" parent="1">
          <mxGeometry x="780" y="320" width="160" height="40" as="geometry" />
        </mxCell>
        <mxCell id="w4ypoUHhYFHXSaaBUVkP-21" value="" style="shape=flexArrow;endArrow=classic;html=1;rounded=0;entryX=0.5;entryY=0;entryDx=0;entryDy=0;" edge="1" parent="1" target="w4ypoUHhYFHXSaaBUVkP-13">
          <mxGeometry width="50" height="50" relative="1" as="geometry">
            <mxPoint x="820" y="200" as="sourcePoint" />
            <mxPoint x="500" y="330" as="targetPoint" />
          </mxGeometry>
        </mxCell>
        <mxCell id="w4ypoUHhYFHXSaaBUVkP-22" value="" style="shape=flexArrow;endArrow=classic;html=1;rounded=0;entryX=0.5;entryY=0;entryDx=0;entryDy=0;" edge="1" parent="1" target="w4ypoUHhYFHXSaaBUVkP-14">
          <mxGeometry width="50" height="50" relative="1" as="geometry">
            <mxPoint x="900" y="200" as="sourcePoint" />
            <mxPoint x="500" y="330" as="targetPoint" />
          </mxGeometry>
        </mxCell>
        <mxCell id="w4ypoUHhYFHXSaaBUVkP-23" value="" style="shape=flexArrow;endArrow=classic;html=1;rounded=0;exitX=0.5;exitY=1;exitDx=0;exitDy=0;entryX=0.25;entryY=0;entryDx=0;entryDy=0;" edge="1" parent="1" source="w4ypoUHhYFHXSaaBUVkP-13" target="w4ypoUHhYFHXSaaBUVkP-20">
          <mxGeometry width="50" height="50" relative="1" as="geometry">
            <mxPoint x="450" y="380" as="sourcePoint" />
            <mxPoint x="500" y="330" as="targetPoint" />
          </mxGeometry>
        </mxCell>
        <mxCell id="w4ypoUHhYFHXSaaBUVkP-24" value="" style="shape=flexArrow;endArrow=classic;html=1;rounded=0;exitX=0.5;exitY=1;exitDx=0;exitDy=0;entryX=0.75;entryY=0;entryDx=0;entryDy=0;" edge="1" parent="1" source="w4ypoUHhYFHXSaaBUVkP-14" target="w4ypoUHhYFHXSaaBUVkP-20">
          <mxGeometry width="50" height="50" relative="1" as="geometry">
            <mxPoint x="450" y="380" as="sourcePoint" />
            <mxPoint x="500" y="330" as="targetPoint" />
          </mxGeometry>
        </mxCell>
        <mxCell id="w4ypoUHhYFHXSaaBUVkP-25" value="" style="shape=flexArrow;endArrow=classic;html=1;rounded=0;exitX=0.5;exitY=0;exitDx=0;exitDy=0;" edge="1" parent="1" source="w4ypoUHhYFHXSaaBUVkP-8">
          <mxGeometry width="50" height="50" relative="1" as="geometry">
            <mxPoint x="550" y="450" as="sourcePoint" />
            <mxPoint x="1070" y="200" as="targetPoint" />
          </mxGeometry>
        </mxCell>
        <mxCell id="w4ypoUHhYFHXSaaBUVkP-27" value="" style="shape=flexArrow;endArrow=classic;html=1;rounded=0;exitX=0.25;exitY=0;exitDx=0;exitDy=0;" edge="1" parent="1" source="w4ypoUHhYFHXSaaBUVkP-19">
          <mxGeometry width="50" height="50" relative="1" as="geometry">
            <mxPoint x="580" y="450" as="sourcePoint" />
            <mxPoint x="1070" y="500" as="targetPoint" />
          </mxGeometry>
        </mxCell>
        <mxCell id="w4ypoUHhYFHXSaaBUVkP-28" value="" style="shape=flexArrow;endArrow=classic;html=1;rounded=0;entryX=0.75;entryY=0;entryDx=0;entryDy=0;" edge="1" parent="1" target="w4ypoUHhYFHXSaaBUVkP-19">
          <mxGeometry width="50" height="50" relative="1" as="geometry">
            <mxPoint x="1110" y="500" as="sourcePoint" />
            <mxPoint x="630" y="400" as="targetPoint" />
          </mxGeometry>
        </mxCell>
        <mxCell id="w4ypoUHhYFHXSaaBUVkP-29" value="" style="shape=flexArrow;endArrow=classic;html=1;rounded=0;exitX=0.75;exitY=0;exitDx=0;exitDy=0;" edge="1" parent="1" source="w4ypoUHhYFHXSaaBUVkP-18">
          <mxGeometry width="50" height="50" relative="1" as="geometry">
            <mxPoint x="880" y="540" as="sourcePoint" />
            <mxPoint x="900" y="500" as="targetPoint" />
          </mxGeometry>
        </mxCell>
        <mxCell id="w4ypoUHhYFHXSaaBUVkP-31" value="" style="shape=flexArrow;endArrow=classic;html=1;rounded=0;exitX=0.75;exitY=1;exitDx=0;exitDy=0;" edge="1" parent="1" source="w4ypoUHhYFHXSaaBUVkP-20">
          <mxGeometry width="50" height="50" relative="1" as="geometry">
            <mxPoint x="710" y="490" as="sourcePoint" />
            <mxPoint x="900" y="480" as="targetPoint" />
          </mxGeometry>
        </mxCell>
        <mxCell id="w4ypoUHhYFHXSaaBUVkP-30" value="" style="shape=flexArrow;endArrow=classic;html=1;rounded=0;exitX=0.25;exitY=1;exitDx=0;exitDy=0;entryX=0.25;entryY=0;entryDx=0;entryDy=0;fillColor=#dae8fc;strokeColor=#6c8ebf;" edge="1" parent="1" source="w4ypoUHhYFHXSaaBUVkP-20" target="w4ypoUHhYFHXSaaBUVkP-18">
          <mxGeometry width="50" height="50" relative="1" as="geometry">
            <mxPoint x="550" y="450" as="sourcePoint" />
            <mxPoint x="600" y="400" as="targetPoint" />
          </mxGeometry>
        </mxCell>
        <mxCell id="w4ypoUHhYFHXSaaBUVkP-32" value="" style="shape=flexArrow;endArrow=classic;html=1;rounded=0;exitX=0.25;exitY=0;exitDx=0;exitDy=0;" edge="1" parent="1">
          <mxGeometry width="50" height="50" relative="1" as="geometry">
            <mxPoint x="679.71" y="540" as="sourcePoint" />
            <mxPoint x="679.71" y="500" as="targetPoint" />
          </mxGeometry>
        </mxCell>
        <mxCell id="w4ypoUHhYFHXSaaBUVkP-33" value="" style="shape=flexArrow;endArrow=classic;html=1;rounded=0;entryX=0.75;entryY=0;entryDx=0;entryDy=0;" edge="1" parent="1">
          <mxGeometry width="50" height="50" relative="1" as="geometry">
            <mxPoint x="719.71" y="500" as="sourcePoint" />
            <mxPoint x="719.71" y="540" as="targetPoint" />
          </mxGeometry>
        </mxCell>
        <mxCell id="w4ypoUHhYFHXSaaBUVkP-34" value="" style="shape=link;html=1;rounded=0;width=20.285714285714285;fillColor=#d5e8d4;strokeColor=#82b366;shadow=0;flowAnimation=0;targetPerimeterSpacing=6;sourcePerimeterSpacing=6;endSize=10;startSize=10;" edge="1" parent="1">
          <mxGeometry width="100" relative="1" as="geometry">
            <mxPoint x="560" y="190" as="sourcePoint" />
            <mxPoint x="1170" y="190" as="targetPoint" />
          </mxGeometry>
        </mxCell>
        <mxCell id="w4ypoUHhYFHXSaaBUVkP-35" value="" style="shape=flexArrow;endArrow=classic;html=1;rounded=0;exitX=0.5;exitY=0;exitDx=0;exitDy=0;" edge="1" parent="1" source="w4ypoUHhYFHXSaaBUVkP-15">
          <mxGeometry width="50" height="50" relative="1" as="geometry">
            <mxPoint x="770" y="400" as="sourcePoint" />
            <mxPoint x="720" y="200" as="targetPoint" />
          </mxGeometry>
        </mxCell>
        <mxCell id="w4ypoUHhYFHXSaaBUVkP-36" value="" style="shape=flexArrow;endArrow=classic;html=1;rounded=0;exitX=0.5;exitY=1;exitDx=0;exitDy=0;" edge="1" parent="1" source="w4ypoUHhYFHXSaaBUVkP-15">
          <mxGeometry width="50" height="50" relative="1" as="geometry">
            <mxPoint x="750" y="409" as="sourcePoint" />
            <mxPoint x="720" y="480" as="targetPoint" />
          </mxGeometry>
        </mxCell>
        <mxCell id="w4ypoUHhYFHXSaaBUVkP-37" value="" style="shape=flexArrow;endArrow=classic;html=1;rounded=0;exitX=1;exitY=0.5;exitDx=0;exitDy=0;entryX=-0.007;entryY=0.775;entryDx=0;entryDy=0;entryPerimeter=0;" edge="1" parent="1" source="w4ypoUHhYFHXSaaBUVkP-16">
          <mxGeometry width="50" height="50" relative="1" as="geometry">
            <mxPoint x="780.28" y="346" as="sourcePoint" />
            <mxPoint x="700" y="341" as="targetPoint" />
          </mxGeometry>
        </mxCell>
        <mxCell id="w4ypoUHhYFHXSaaBUVkP-38" value="Control Unit (CU)" style="rounded=1;whiteSpace=wrap;html=1;" vertex="1" parent="1">
          <mxGeometry x="780" y="640" width="350" height="110" as="geometry" />
        </mxCell>
        <mxCell id="w4ypoUHhYFHXSaaBUVkP-39" value="Decoder" style="rounded=1;whiteSpace=wrap;html=1;" vertex="1" parent="1">
          <mxGeometry x="660" y="640" width="80" height="50" as="geometry" />
        </mxCell>
        <mxCell id="w4ypoUHhYFHXSaaBUVkP-41" value="" style="endArrow=classic;html=1;rounded=0;fillColor=#f8cecc;strokeColor=#b85450;exitX=0.993;exitY=0.794;exitDx=0;exitDy=0;entryX=0;entryY=0.361;entryDx=0;entryDy=0;entryPerimeter=0;exitPerimeter=0;" edge="1" parent="1" source="w4ypoUHhYFHXSaaBUVkP-39" target="w4ypoUHhYFHXSaaBUVkP-38">
          <mxGeometry width="50" height="50" relative="1" as="geometry">
            <mxPoint x="789" y="662" as="sourcePoint" />
            <mxPoint x="750" y="663" as="targetPoint" />
          </mxGeometry>
        </mxCell>
        <mxCell id="w4ypoUHhYFHXSaaBUVkP-42" value="" style="shape=flexArrow;endArrow=classic;html=1;rounded=0;entryX=0.227;entryY=-0.014;entryDx=0;entryDy=0;entryPerimeter=0;" edge="1" parent="1" target="w4ypoUHhYFHXSaaBUVkP-38">
          <mxGeometry width="50" height="50" relative="1" as="geometry">
            <mxPoint x="859.71" y="580" as="sourcePoint" />
            <mxPoint x="859.71" y="620" as="targetPoint" />
          </mxGeometry>
        </mxCell>
        <mxCell id="w4ypoUHhYFHXSaaBUVkP-43" value="" style="endArrow=classic;startArrow=classic;html=1;rounded=0;exitX=1;exitY=0.5;exitDx=0;exitDy=0;entryX=0;entryY=0.5;entryDx=0;entryDy=0;fillColor=#f8cecc;strokeColor=#b85450;" edge="1" parent="1" source="w4ypoUHhYFHXSaaBUVkP-17" target="w4ypoUHhYFHXSaaBUVkP-18">
          <mxGeometry width="50" height="50" relative="1" as="geometry">
            <mxPoint x="830" y="570" as="sourcePoint" />
            <mxPoint x="880" y="520" as="targetPoint" />
          </mxGeometry>
        </mxCell>
        <mxCell id="w4ypoUHhYFHXSaaBUVkP-44" value="" style="endArrow=none;html=1;rounded=0;fillColor=#f8cecc;strokeColor=#b85450;exitX=0.513;exitY=0.004;exitDx=0;exitDy=0;exitPerimeter=0;" edge="1" parent="1" source="w4ypoUHhYFHXSaaBUVkP-38">
          <mxGeometry width="50" height="50" relative="1" as="geometry">
            <mxPoint x="830" y="570" as="sourcePoint" />
            <mxPoint x="960" y="40" as="targetPoint" />
          </mxGeometry>
        </mxCell>
        <mxCell id="w4ypoUHhYFHXSaaBUVkP-45" value="" style="endArrow=classic;html=1;rounded=0;fillColor=#f8cecc;strokeColor=#b85450;entryX=0;entryY=0.5;entryDx=0;entryDy=0;" edge="1" parent="1" target="w4ypoUHhYFHXSaaBUVkP-19">
          <mxGeometry width="50" height="50" relative="1" as="geometry">
            <mxPoint x="960" y="560" as="sourcePoint" />
            <mxPoint x="880" y="410" as="targetPoint" />
          </mxGeometry>
        </mxCell>
        <mxCell id="w4ypoUHhYFHXSaaBUVkP-46" value="" style="endArrow=classic;html=1;rounded=0;fillColor=#f8cecc;strokeColor=#b85450;entryX=0;entryY=0.5;entryDx=0;entryDy=0;" edge="1" parent="1">
          <mxGeometry width="50" height="50" relative="1" as="geometry">
            <mxPoint x="960" y="419.71000000000004" as="sourcePoint" />
            <mxPoint x="1050" y="419.71000000000004" as="targetPoint" />
          </mxGeometry>
        </mxCell>
        <mxCell id="w4ypoUHhYFHXSaaBUVkP-47" value="" style="endArrow=classic;html=1;rounded=0;fillColor=#f8cecc;strokeColor=#b85450;entryX=1;entryY=0.25;entryDx=0;entryDy=0;" edge="1" parent="1" target="w4ypoUHhYFHXSaaBUVkP-20">
          <mxGeometry width="50" height="50" relative="1" as="geometry">
            <mxPoint x="960" y="330" as="sourcePoint" />
            <mxPoint x="1070" y="580" as="targetPoint" />
          </mxGeometry>
        </mxCell>
        <mxCell id="w4ypoUHhYFHXSaaBUVkP-48" value="" style="endArrow=classic;html=1;rounded=0;fillColor=#f8cecc;strokeColor=#b85450;entryX=0;entryY=0.5;entryDx=0;entryDy=0;" edge="1" parent="1" target="w4ypoUHhYFHXSaaBUVkP-2">
          <mxGeometry width="50" height="50" relative="1" as="geometry">
            <mxPoint x="960" y="40" as="sourcePoint" />
            <mxPoint x="1080" y="590" as="targetPoint" />
          </mxGeometry>
        </mxCell>
        <mxCell id="w4ypoUHhYFHXSaaBUVkP-49" value="" style="endArrow=classic;html=1;rounded=0;fillColor=#f8cecc;strokeColor=#b85450;entryX=1;entryY=0.5;entryDx=0;entryDy=0;" edge="1" parent="1">
          <mxGeometry width="50" height="50" relative="1" as="geometry">
            <mxPoint x="960" y="250" as="sourcePoint" />
            <mxPoint x="920" y="250" as="targetPoint" />
          </mxGeometry>
        </mxCell>
        <mxCell id="w4ypoUHhYFHXSaaBUVkP-51" value="" style="shape=flexArrow;endArrow=classic;html=1;rounded=0;exitX=0;exitY=0.75;exitDx=0;exitDy=0;entryX=0.5;entryY=1;entryDx=0;entryDy=0;fillColor=#f8cecc;strokeColor=#b85450;" edge="1" parent="1" source="w4ypoUHhYFHXSaaBUVkP-38" target="w4ypoUHhYFHXSaaBUVkP-16">
          <mxGeometry width="50" height="50" relative="1" as="geometry">
            <mxPoint x="850" y="550" as="sourcePoint" />
            <mxPoint x="640.28" y="380" as="targetPoint" />
            <Array as="points">
              <mxPoint x="640" y="723" />
            </Array>
          </mxGeometry>
        </mxCell>
        <mxCell id="w4ypoUHhYFHXSaaBUVkP-52" value="" style="endArrow=none;dashed=1;html=1;rounded=0;" edge="1" parent="1">
          <mxGeometry width="50" height="50" relative="1" as="geometry">
            <mxPoint x="600" y="520" as="sourcePoint" />
            <mxPoint x="480" y="520" as="targetPoint" />
          </mxGeometry>
        </mxCell>
        <mxCell id="w4ypoUHhYFHXSaaBUVkP-53" value="" style="endArrow=none;dashed=1;html=1;rounded=0;" edge="1" parent="1">
          <mxGeometry width="50" height="50" relative="1" as="geometry">
            <mxPoint x="600" y="80" as="sourcePoint" />
            <mxPoint x="480" y="80" as="targetPoint" />
          </mxGeometry>
        </mxCell>
        <mxCell id="w4ypoUHhYFHXSaaBUVkP-54" value="CU" style="text;html=1;align=center;verticalAlign=middle;whiteSpace=wrap;rounded=0;" vertex="1" parent="1">
          <mxGeometry x="480" y="530" width="60" height="30" as="geometry" />
        </mxCell>
        <mxCell id="w4ypoUHhYFHXSaaBUVkP-55" value="EU" style="text;html=1;align=center;verticalAlign=middle;whiteSpace=wrap;rounded=0;" vertex="1" parent="1">
          <mxGeometry x="480" y="245" width="60" height="30" as="geometry" />
        </mxCell>
        <mxCell id="w4ypoUHhYFHXSaaBUVkP-56" value="IO" style="text;html=1;align=center;verticalAlign=middle;whiteSpace=wrap;rounded=0;" vertex="1" parent="1">
          <mxGeometry x="480" y="25" width="60" height="30" as="geometry" />
        </mxCell>
        <mxCell id="w4ypoUHhYFHXSaaBUVkP-57" value="" style="endArrow=classic;html=1;rounded=0;fillColor=#f8cecc;strokeColor=#b85450;entryX=1;entryY=0.75;entryDx=0;entryDy=0;" edge="1" parent="1" target="w4ypoUHhYFHXSaaBUVkP-20">
          <mxGeometry width="50" height="50" relative="1" as="geometry">
            <mxPoint x="960" y="350" as="sourcePoint" />
            <mxPoint x="950" y="340" as="targetPoint" />
          </mxGeometry>
        </mxCell>
        <mxCell id="w4ypoUHhYFHXSaaBUVkP-58" value="" style="endArrow=classic;html=1;rounded=0;entryX=0.285;entryY=1.01;entryDx=0;entryDy=0;entryPerimeter=0;fillColor=#e1d5e7;strokeColor=#9673a6;" edge="1" parent="1" target="w4ypoUHhYFHXSaaBUVkP-38">
          <mxGeometry width="50" height="50" relative="1" as="geometry">
            <mxPoint x="880" y="780" as="sourcePoint" />
            <mxPoint x="900" y="610" as="targetPoint" />
          </mxGeometry>
        </mxCell>
        <mxCell id="w4ypoUHhYFHXSaaBUVkP-59" value="" style="endArrow=classic;html=1;rounded=0;fillColor=#e1d5e7;strokeColor=#9673a6;exitX=0.744;exitY=1.002;exitDx=0;exitDy=0;exitPerimeter=0;" edge="1" parent="1" source="w4ypoUHhYFHXSaaBUVkP-38">
          <mxGeometry width="50" height="50" relative="1" as="geometry">
            <mxPoint x="870" y="790" as="sourcePoint" />
            <mxPoint x="1040" y="780" as="targetPoint" />
          </mxGeometry>
        </mxCell>
        <mxCell id="w4ypoUHhYFHXSaaBUVkP-60" value="" style="shape=flexArrow;endArrow=classic;startArrow=classic;html=1;rounded=0;entryX=0.5;entryY=1;entryDx=0;entryDy=0;exitX=0.5;exitY=0;exitDx=0;exitDy=0;" edge="1" parent="1" source="w4ypoUHhYFHXSaaBUVkP-39" target="w4ypoUHhYFHXSaaBUVkP-17">
          <mxGeometry width="100" height="100" relative="1" as="geometry">
            <mxPoint x="800" y="590" as="sourcePoint" />
            <mxPoint x="900" y="490" as="targetPoint" />
          </mxGeometry>
        </mxCell>
        <mxCell id="w4ypoUHhYFHXSaaBUVkP-61" value="" style="endArrow=none;html=1;rounded=0;fillColor=#f8cecc;strokeColor=#b85450;" edge="1" parent="1">
          <mxGeometry width="50" height="50" relative="1" as="geometry">
            <mxPoint x="779" y="660" as="sourcePoint" />
            <mxPoint x="760" y="260" as="targetPoint" />
            <Array as="points">
              <mxPoint x="760" y="660" />
            </Array>
          </mxGeometry>
        </mxCell>
        <mxCell id="w4ypoUHhYFHXSaaBUVkP-62" value="" style="endArrow=classic;html=1;rounded=0;entryX=1.011;entryY=0.403;entryDx=0;entryDy=0;entryPerimeter=0;fillColor=#f8cecc;strokeColor=#b85450;" edge="1" parent="1" target="w4ypoUHhYFHXSaaBUVkP-39">
          <mxGeometry width="50" height="50" relative="1" as="geometry">
            <mxPoint x="760" y="660" as="sourcePoint" />
            <mxPoint x="810" y="620" as="targetPoint" />
          </mxGeometry>
        </mxCell>
        <mxCell id="w4ypoUHhYFHXSaaBUVkP-63" value="" style="endArrow=classic;html=1;rounded=0;fillColor=#f8cecc;strokeColor=#b85450;" edge="1" parent="1">
          <mxGeometry width="50" height="50" relative="1" as="geometry">
            <mxPoint x="760" y="260" as="sourcePoint" />
            <mxPoint x="800" y="260" as="targetPoint" />
          </mxGeometry>
        </mxCell>
        <mxCell id="w4ypoUHhYFHXSaaBUVkP-64" value="" style="endArrow=classic;html=1;rounded=0;fillColor=#f8cecc;strokeColor=#b85450;entryX=1;entryY=0.5;entryDx=0;entryDy=0;" edge="1" parent="1" target="w4ypoUHhYFHXSaaBUVkP-15">
          <mxGeometry width="50" height="50" relative="1" as="geometry">
            <mxPoint x="760" y="340" as="sourcePoint" />
            <mxPoint x="810" y="270" as="targetPoint" />
          </mxGeometry>
        </mxCell>
      </root>
    </mxGraphModel>
  </diagram>
</mxfile>
